<?xml version="1.0" encoding="iso-8859-1"?>
<!-- Generator: Adobe Illustrator 19.0.0, SVG Export Plug-In . SVG Version: 6.00 Build 0)  -->
<svg version="1.1" id="Layer_1" xmlns="http://www.w3.org/2000/svg" xmlns:xlink="http://www.w3.org/1999/xlink" x="0px" y="0px"
	 viewBox="0 0 512.003 512.003" style="enable-background:new 0 0 512.003 512.003;" xml:space="preserve">
<circle style="fill:#8E572E;" cx="256.001" cy="256.001" r="256.001"/>
<path style="fill:#AF6A3A;" d="M256,512C114.615,512,0,397.385,0,256S114.615,0,256,0V512z"/>
<path style="fill:#D9433D;" d="M236.855,252.385c50.177-50.177,152.208,100.371,273.228,34.986
	c1.256-10.282,1.916-20.75,1.916-31.371C512,114.615,397.385,0,256,0S0,114.615,0,256c0,8.333,0.412,16.57,1.191,24.7
	C52.841,310.612,147.053,342.188,236.855,252.385z"/>
<path style="fill:#FF5E5A;" d="M236.855,252.385c5.723-5.723,19.144-2.841,19.144-9.953c0-5.107,0-242.432,0-242.432
	C114.615,0,0,114.615,0,256c0,8.333,0.412,16.57,1.191,24.7C52.841,310.612,147.053,342.188,236.855,252.385z"/>
<path style="fill:#F3A938;" d="M94.377,221.017c-4.557,0-9.144-1.494-12.974-4.568c-8.938-7.174-10.37-20.233-3.197-29.171
	l23.445-29.215c7.173-8.938,20.234-10.367,29.171-3.198c8.938,7.174,10.37,20.233,3.197,29.171l-23.445,29.215
	C106.476,218.359,100.453,221.017,94.377,221.017z"/>
<path style="fill:#DE9833;" d="M326.586,145.844c-0.127,0-0.252-0.001-0.379-0.003c-11.458-0.206-20.58-9.661-20.375-21.119
	l0.671-37.453c0.203-11.331,9.454-20.378,20.739-20.378c0.127,0,0.252,0.001,0.379,0.003c11.458,0.206,20.58,9.661,20.375,21.119
	l-0.671,37.453C347.122,136.797,337.872,145.844,326.586,145.844z"/>
<path style="fill:#449CC2;" d="M400.702,220.279c-4.975,0-9.964-1.778-13.937-5.384c-8.487-7.7-9.125-20.823-1.423-29.31
	l25.171-27.742c7.701-8.487,20.823-9.123,29.31-1.422c8.487,7.7,9.125,20.823,1.423,29.31l-25.171,27.742
	C411.98,217.984,406.35,220.279,400.702,220.279z"/>
<path style="fill:#81C5E0;" d="M210.42,125.299c-3.898,0-7.839-1.097-11.343-3.391l-31.342-20.514
	c-9.589-6.276-12.274-19.137-5.998-28.726c6.276-9.588,19.136-12.273,28.725-5.998l31.342,20.514
	c9.589,6.276,12.274,19.137,5.998,28.726C223.819,121.994,217.186,125.299,210.42,125.299z"/>
<circle style="fill:#FFFFFF;" cx="256.001" cy="256.001" r="68.143"/>
<g>
</g>
<g>
</g>
<g>
</g>
<g>
</g>
<g>
</g>
<g>
</g>
<g>
</g>
<g>
</g>
<g>
</g>
<g>
</g>
<g>
</g>
<g>
</g>
<g>
</g>
<g>
</g>
<g>
</g>
</svg>
