<?xml version="1.0" encoding="iso-8859-1"?>
<!-- Generator: Adobe Illustrator 19.0.0, SVG Export Plug-In . SVG Version: 6.00 Build 0)  -->
<svg version="1.1" id="Layer_1" xmlns="http://www.w3.org/2000/svg" xmlns:xlink="http://www.w3.org/1999/xlink" x="0px" y="0px"
	 viewBox="0 0 511.987 511.987" style="enable-background:new 0 0 511.987 511.987;" xml:space="preserve">
<path style="fill:#E6E9ED;" d="M341.319,276.337c0-43.671-42.953-116.966-42.953-116.966V85.342h-42.373h-42.374v74.029
	c0,0-42.952,73.295-42.952,116.966c0,43.655,10.859,111.606,10.859,141.48c0,29.89-10.859,72.842-10.859,72.842
	s10.968,21.187,85.326,21.327c74.357-0.141,85.326-21.327,85.326-21.327s-10.875-42.952-10.875-72.842
	C330.444,387.943,341.319,319.992,341.319,276.337z"/>
<path style="fill:#A85D5D;" d="M172.074,308.883c2.937,39.843,9.453,85.795,9.453,108.935c0,29.89-10.859,72.842-10.859,72.842
	s10.968,21.187,85.326,21.327c74.357-0.141,85.326-21.327,85.326-21.327s-10.875-42.952-10.875-72.842
	c0-23.14,6.531-69.092,9.469-108.935H172.074z"/>
<path style="fill:#434A54;" d="M341.319,10.672C341.319,4.781,336.553,0,330.663,0c-1.016,0-2,0.156-2.938,0.422V0.406
	l-74.67,21.344h0.016c-4.469,1.281-7.75,5.375-7.75,10.25l0,0v266.664h21.343V40.046l66.92-19.124l0,0
	C338.054,19.64,341.319,15.547,341.319,10.672z"/>
<g>
	<path style="fill:#965353;" d="M266.649,511.814c-0.094-5.812-4.828-10.483-10.656-10.483s-10.562,4.672-10.656,10.483
		c3.406,0.109,6.953,0.172,10.656,0.172S263.243,511.924,266.649,511.814z"/>
	<path style="fill:#965353;" d="M213.322,497.768c-5.343,0-9.765,3.953-10.531,9.094c5.906,1.39,12.859,2.593,21.015,3.483
		c0.125-0.609,0.188-1.25,0.188-1.906C223.994,502.55,219.213,497.768,213.322,497.768z"/>
	<path style="fill:#965353;" d="M298.663,497.768c-5.891,0-10.672,4.781-10.672,10.671c0,0.656,0.062,1.297,0.188,1.906
		c8.156-0.891,15.109-2.094,21.016-3.483C308.429,501.722,304.007,497.768,298.663,497.768z"/>
</g>
<rect x="213.323" y="255.993" style="fill:#DA4453;" width="85.34" height="128"/>
<g style="opacity:0.2;">
	<path style="fill:#FFFFFF;" d="M341.319,276.337c0-43.671-42.953-116.966-42.953-116.966V85.342H277.04v74.029
		c0,0,42.951,73.295,42.951,116.966c0,43.655-10.875,111.606-10.875,141.48c0,29.89,10.875,72.842,10.875,72.842
		s-9.922,19.124-74.669,21.155c3.406,0.109,6.953,0.172,10.671,0.172c74.357-0.141,85.326-21.327,85.326-21.327
		s-10.875-42.952-10.875-72.842C330.444,387.943,341.319,319.992,341.319,276.337z"/>
</g>
<g>
</g>
<g>
</g>
<g>
</g>
<g>
</g>
<g>
</g>
<g>
</g>
<g>
</g>
<g>
</g>
<g>
</g>
<g>
</g>
<g>
</g>
<g>
</g>
<g>
</g>
<g>
</g>
<g>
</g>
</svg>
