<?xml version="1.0" encoding="iso-8859-1"?>
<!-- Generator: Adobe Illustrator 19.0.0, SVG Export Plug-In . SVG Version: 6.00 Build 0)  -->
<svg version="1.1" id="Layer_1" xmlns="http://www.w3.org/2000/svg" xmlns:xlink="http://www.w3.org/1999/xlink" x="0px" y="0px"
	 viewBox="0 0 213.956 213.956" style="enable-background:new 0 0 213.956 213.956;" xml:space="preserve">
<g>
	<g>
		<g>
			<path d="M142.45,162.23c2.042,0,3.695-1.653,3.695-3.695v-17.547c0-1.212-0.595-2.349-1.595-3.038
				c-0.992-0.691-2.273-0.842-3.406-0.42c-22.628,8.555-48.164,8.234-70.604-0.891c-0.444-0.18-0.916-0.274-1.393-0.274h-0.595
				c-2.042,0-3.695,1.653-3.695,3.695v18.475c0,2.042,1.653,3.695,3.695,3.695H142.45z M72.247,145.19
				c21.296,7.556,45.01,7.902,66.508,0.999v8.65H72.247V145.19z"/>
			<path d="M211.079,49.537c-0.704-0.859-1.754-1.357-2.861-1.357H5.738c-1.108,0-2.158,0.498-2.861,1.357
				c-0.7,0.859-0.981,1.988-0.762,3.074c10.349,50.957,54.454,87.942,104.865,87.942c50.412,0,94.513-36.985,104.861-87.942
				C212.061,51.525,211.78,50.396,211.079,49.537z M106.98,133.163c-45.443,0-85.387-32.37-96.624-77.593H203.6
				C192.364,100.793,152.42,133.163,106.98,133.163z"/>
			<path d="M190.542,188.093H79.157c-2.572-10.608-16.024-18.475-32.774-18.475c-18.648,0-33.254,9.739-33.254,22.169
				s14.606,22.169,33.254,22.169c16.75,0,30.202-7.867,32.774-18.475h111.385c2.042,0,3.695-1.653,3.695-3.695
				C194.237,189.744,192.584,188.093,190.542,188.093z M46.382,206.568c-14.018,0-25.864-6.769-25.864-14.78
				c0-8.011,11.846-14.78,25.864-14.78s25.864,6.769,25.864,14.78C72.246,199.799,60.401,206.568,46.382,206.568z"/>
			<path d="M100.623,34.144c-0.574,2.23-2.255,3.197-2.262,3.204c-1.819,0.927-2.544,3.15-1.62,4.969
				c0.653,1.285,1.952,2.021,3.298,2.021c0.563,0,1.133-0.13,1.67-0.401c0.462-0.235,4.532-2.436,5.997-7.689
				c1.306-4.676,0.101-10.056-3.587-15.988c-2.089-3.363-2.767-6.213-2.017-8.472c1.036-3.128,4.604-4.597,4.72-4.644
				c1.894-0.725,2.854-2.843,2.14-4.749c-0.718-1.912-2.847-2.869-4.759-2.162c-0.7,0.263-6.914,2.757-9.082,9.129
				c-1.519,4.463-0.603,9.443,2.721,14.794C100.316,28.14,101.276,31.593,100.623,34.144z"/>
			<path d="M119.097,34.144c-0.574,2.23-2.255,3.197-2.262,3.204c-1.819,0.927-2.544,3.15-1.62,4.969
				c0.653,1.285,1.952,2.021,3.298,2.021c0.563,0,1.133-0.13,1.67-0.401c0.462-0.235,4.532-2.436,5.997-7.689
				c1.306-4.676,0.101-10.056-3.587-15.988c-2.089-3.363-2.767-6.213-2.017-8.472c1.036-3.128,4.604-4.597,4.72-4.644
				c1.894-0.725,2.854-2.843,2.14-4.749c-0.715-1.912-2.847-2.869-4.759-2.162c-0.7,0.263-6.914,2.757-9.082,9.129
				c-1.519,4.463-0.603,9.443,2.721,14.794C118.791,28.14,119.75,31.593,119.097,34.144z"/>
		</g>
	</g>
</g>
<g>
</g>
<g>
</g>
<g>
</g>
<g>
</g>
<g>
</g>
<g>
</g>
<g>
</g>
<g>
</g>
<g>
</g>
<g>
</g>
<g>
</g>
<g>
</g>
<g>
</g>
<g>
</g>
<g>
</g>
</svg>
