<?xml version="1.0" encoding="iso-8859-1"?>
<!-- Generator: Adobe Illustrator 19.0.0, SVG Export Plug-In . SVG Version: 6.00 Build 0)  -->
<svg version="1.1" id="Layer_1" xmlns="http://www.w3.org/2000/svg" xmlns:xlink="http://www.w3.org/1999/xlink" x="0px" y="0px"
	 viewBox="0 0 512 512" style="enable-background:new 0 0 512 512;" xml:space="preserve">
<polygon style="fill:#EF431D;" points="233.495,196.923 233.495,331.956 177.231,354.462 177.231,174.418 "/>
<polygon style="fill:#FD7555;" points="199.736,174.418 199.736,354.462 25.319,331.956 25.319,196.923 "/>
<g>
	<path style="fill:#3F4C53;" d="M165.978,95.648H132.22l67.516,101.275h33.758v-33.758
		C233.495,126.031,203.112,95.648,165.978,95.648z"/>
	<path style="fill:#3F4C53;" d="M199.736,331.956l-17.824,175.667c4.996,2.791,10.746,4.377,16.879,4.377
		c19.163,0,34.703-15.529,34.703-34.692V331.956H199.736z"/>
</g>
<path style="fill:#66C6FE;" d="M471.513,241.934l-67.517-33.758v157.538l67.517-33.758c9.115-6.065,15.169-16.418,15.169-28.132
	v-33.758C486.681,258.352,480.627,247.999,471.513,241.934z"/>
<g>
	<path style="fill:#99D9FF;" d="M452.923,270.066v33.758c0,11.714-6.054,22.067-15.169,28.132l-72.046,22.505l-72.046-22.505
		c-9.115-6.065-15.157-16.418-15.157-28.132v-33.758c0-11.714,6.043-22.067,15.157-28.132l72.046-22.505l72.046,22.505
		C446.869,247.999,452.923,258.352,452.923,270.066z"/>
	<path style="fill:#99D9FF;" d="M471.513,331.956h-33.758L418.22,512h33.758c19.163,0,34.703-15.529,34.703-34.692v-117.22
		C486.681,348.374,480.627,338.021,471.513,331.956z"/>
	<path style="fill:#99D9FF;" d="M475.867,150.202l-45.45-54.553h-33.758l41.095,146.286h33.758
		c9.115-6.065,15.169-16.418,15.169-28.132v-33.758C486.681,170.76,481.82,157.325,475.867,150.202z"/>
</g>
<polygon style="fill:#EF431D;" points="177.231,0 177.231,61.89 143.473,61.89 109.714,30.945 143.473,0 "/>
<g>
	<polygon style="fill:#CCECFF;" points="430.418,0 430.418,61.89 396.659,61.89 362.901,30.945 396.659,0 	"/>
	<path style="fill:#CCECFF;" d="M452.923,360.088v117.22c0,19.163-15.54,34.692-34.703,34.692H313.198
		c-19.163,0-34.692-15.529-34.692-34.692v-117.22c0-11.714,6.043-22.067,15.157-28.132h144.091
		C446.869,338.021,452.923,348.374,452.923,360.088z"/>
	<path style="fill:#CCECFF;" d="M452.923,180.044v33.758c0,11.714-6.054,22.067-15.169,28.132H293.663
		c-9.115-6.065-15.157-16.418-15.157-28.132v-33.758c0-9.284,4.861-22.719,10.803-29.842l45.461-54.553h61.89l45.45,54.553
		C448.062,157.325,452.923,170.76,452.923,180.044z"/>
</g>
<g>
	<path style="fill:#975D50;" d="M199.736,331.956v145.352c0,13.042-7.191,24.396-17.824,30.315
		c-10.623-5.919-17.813-17.273-17.813-30.315c0,19.163-15.529,34.692-34.692,34.692s-34.703-15.529-34.703-34.692
		c0,19.163-15.529,34.692-34.692,34.692s-34.692-15.529-34.692-34.692V331.956H199.736z"/>
	<path style="fill:#975D50;" d="M199.736,163.165v33.758H25.319v-33.758c0-37.134,30.382-67.516,67.516-67.516h39.385
		C169.354,95.648,199.736,126.031,199.736,163.165z"/>
</g>
<rect x="334.769" style="fill:#EDF8FF;" width="61.89" height="61.89"/>
<rect x="81.582" style="fill:#FD7555;" width="61.89" height="61.89"/>
<g>
	<circle style="fill:#CB9385;" cx="128.461" cy="387.747" r="8.44"/>
	<circle style="fill:#CB9385;" cx="165.978" cy="146.286" r="8.44"/>
	<circle style="fill:#CB9385;" cx="94.703" cy="421.505" r="8.44"/>
</g>
<path style="fill:#EF431D;" d="M180.039,70.33H78.765c-4.661,0-8.44-3.779-8.44-8.44s3.779-8.44,8.44-8.44h101.275
	c4.661,0,8.44,3.779,8.44,8.44S184.7,70.33,180.039,70.33z"/>
<path style="fill:#99D9FF;" d="M433.226,70.33H331.952c-4.661,0-8.44-3.779-8.44-8.44s3.779-8.44,8.44-8.44h101.275
	c4.661,0,8.44,3.779,8.44,8.44S437.887,70.33,433.226,70.33z"/>
<g>
</g>
<g>
</g>
<g>
</g>
<g>
</g>
<g>
</g>
<g>
</g>
<g>
</g>
<g>
</g>
<g>
</g>
<g>
</g>
<g>
</g>
<g>
</g>
<g>
</g>
<g>
</g>
<g>
</g>
</svg>
