<?xml version="1.0" encoding="iso-8859-1"?>
<!-- Generator: Adobe Illustrator 19.0.0, SVG Export Plug-In . SVG Version: 6.00 Build 0)  -->
<svg version="1.1" id="Layer_1" xmlns="http://www.w3.org/2000/svg" xmlns:xlink="http://www.w3.org/1999/xlink" x="0px" y="0px"
	 viewBox="0 0 512 512" style="enable-background:new 0 0 512 512;" xml:space="preserve">
<circle style="fill:#C1321F;" cx="256" cy="256" r="256"/>
<path style="fill:#A82116;" d="M257.703,511.979c64.946-0.429,129.762-25.407,179.315-74.961
	c52.374-52.374,77.293-121.796,74.792-190.404L374.617,108.847l-50.81-14.402l-11.802,14.957l-28.896-29.162l-17.915,11.412
	l-30.427,16.07l70.835,70.835l-7.542,12.491l-96.015-96.218l-27.198,0.715l-37.481,23.106l127.981,126.581l4.306,112.411
	L205.69,369.78L268.61,432.7l-60.88,29.306L257.703,511.979z"/>
<path style="fill:#FFABCB;" d="M224.97,90.548c0-8.57,6.946-15.515,15.515-15.515c8.57,0,15.515,6.946,15.515,15.515
	c0-8.57,6.946-15.515,15.515-15.515s15.515,6.946,15.515,15.515c0,14.836-31.03,32.582-31.03,32.582S224.97,106.22,224.97,90.548z"
	/>
<path style="fill:#FF80AA;" d="M256,90.548c0-8.57,6.946-15.515,15.515-15.515s15.515,6.946,15.515,15.515
	c0,14.836-31.03,32.582-31.03,32.582V90.548z"/>
<path style="fill:#F9B54C;" d="M184.458,142.222v176.7c0,34.642,24.623,63.528,57.32,70.123v50.55h-34.047v22.411h96.539v-22.411
	h-34.047v-50.55c32.697-6.596,57.32-35.481,57.32-70.123v-176.7H184.458z"/>
<path style="fill:#F4A200;" d="M255.426,142.222v319.784h48.843v-22.411h-34.047v-50.55c32.697-6.596,57.32-35.481,57.32-70.123
	v-176.7H255.426z"/>
<path style="fill:#FFD15D;" d="M256,369.778L256,369.778c-31.418,0-56.889-25.471-56.889-56.889V199.111h113.778v113.778
	C312.889,344.307,287.418,369.778,256,369.778z"/>
<path style="fill:#F9B54C;" d="M255.426,199.111v170.653c0.191,0.002,0.381,0.014,0.574,0.014l0,0
	c31.418,0,56.889-25.471,56.889-56.889V199.111H255.426z"/>
<path style="fill:#FFABCB;" d="M227.547,348.229c-3.468,0-6.453-2.608-6.846-6.135l-25.745-231.712
	c-0.372-3.343-2.279-6.184-5.236-7.792c-2.955-1.605-6.372-1.667-9.382-0.162l-35.033,17.518c-3.406,1.7-7.547,0.322-9.252-3.084
	c-1.701-3.408-0.322-7.549,3.084-9.252l35.031-17.515c6.996-3.498,15.27-3.355,22.14,0.383c6.871,3.737,11.49,10.609,12.354,18.382
	l25.747,231.714c0.421,3.784-2.307,7.194-6.092,7.615C228.059,348.215,227.802,348.229,227.547,348.229z"/>
<path style="fill:#FF80AA;" d="M284.453,348.229c-0.253,0-0.512-0.014-0.769-0.041c-3.786-0.421-6.513-3.831-6.092-7.615
	l25.747-231.712c0.864-7.775,5.482-14.646,12.353-18.384c6.868-3.737,15.145-3.882,22.14-0.381l35.031,17.513
	c3.406,1.703,4.786,5.846,3.084,9.252c-1.705,3.408-5.851,4.786-9.252,3.084l-35.031-17.515c-3.005-1.502-6.423-1.446-9.382,0.16
	c-2.956,1.608-4.863,4.448-5.236,7.794L291.3,342.095C290.906,345.621,287.922,348.229,284.453,348.229z"/>
<g>
</g>
<g>
</g>
<g>
</g>
<g>
</g>
<g>
</g>
<g>
</g>
<g>
</g>
<g>
</g>
<g>
</g>
<g>
</g>
<g>
</g>
<g>
</g>
<g>
</g>
<g>
</g>
<g>
</g>
</svg>
