<?xml version="1.0" encoding="iso-8859-1"?>
<!-- Generator: Adobe Illustrator 19.0.0, SVG Export Plug-In . SVG Version: 6.00 Build 0)  -->
<svg version="1.1" id="Layer_1" xmlns="http://www.w3.org/2000/svg" xmlns:xlink="http://www.w3.org/1999/xlink" x="0px" y="0px"
	 viewBox="0 0 512 512" style="enable-background:new 0 0 512 512;" xml:space="preserve">
<g>
	<g>
		<rect x="370.939" y="73.404" width="15.673" height="15.673"/>
	</g>
</g>
<g>
	<g>
		<path d="M381.006,41.796L360.108,0H151.892l-20.898,41.796H91.429v78.89h26.776l5.51,63.211l-15.928,15.928
			c-4.019,4.019-5.919,9.558-5.215,15.198l19.12,152.961c1.142,9.131,8.942,16.017,18.145,16.017h1.335l8.38,96.131h15.021V512
			h182.857v-31.869h15.02L370.828,384h1.335c9.204,0,17.004-6.887,18.145-16.018l19.121-152.959
			c0.705-5.639-1.196-11.178-5.215-15.198l-15.927-15.928l5.51-63.211h26.775V41.796H381.006z M161.578,15.673h188.844
			l13.061,26.122H148.517L161.578,15.673z M331.755,496.327h-151.51v-16.196h151.51V496.327z M348.082,464.457h-0.653H164.571
			h-0.654L156.904,384h198.191L348.082,464.457z M393.408,216.816l-18.654,149.223c-0.162,1.304-1.277,2.287-2.591,2.287H139.837
			c-1.314,0-2.429-0.984-2.592-2.288l-18.652-149.222H393.408z M133.938,120.686h244.125l-7.013,80.457H140.952L133.938,120.686z
			 M404.898,105.012H107.102V89.078h248.163V73.404H107.102V57.469h297.796V105.012z"/>
	</g>
</g>
<g>
	<g>
		<path d="M256,240.849c-28.519,0-51.722,23.203-51.722,51.722c0,28.519,23.203,51.722,51.722,51.722s51.722-23.203,51.722-51.722
			C307.722,264.052,284.519,240.849,256,240.849z M256,328.62c-19.877,0-36.049-16.172-36.049-36.049
			c0-19.877,16.172-36.049,36.049-36.049c19.877,0,36.049,16.172,36.049,36.049C292.049,312.449,275.877,328.62,256,328.62z"/>
	</g>
</g>
<g>
</g>
<g>
</g>
<g>
</g>
<g>
</g>
<g>
</g>
<g>
</g>
<g>
</g>
<g>
</g>
<g>
</g>
<g>
</g>
<g>
</g>
<g>
</g>
<g>
</g>
<g>
</g>
<g>
</g>
</svg>
