<?xml version="1.0" encoding="iso-8859-1"?>
<!-- Generator: Adobe Illustrator 18.0.0, SVG Export Plug-In . SVG Version: 6.00 Build 0)  -->
<!DOCTYPE svg PUBLIC "-//W3C//DTD SVG 1.1//EN" "http://www.w3.org/Graphics/SVG/1.1/DTD/svg11.dtd">
<svg version="1.1" id="Capa_1" xmlns="http://www.w3.org/2000/svg" xmlns:xlink="http://www.w3.org/1999/xlink" x="0px" y="0px"
	 viewBox="0 0 59.942 59.942" style="enable-background:new 0 0 59.942 59.942;" xml:space="preserve">
<g>
	<path d="M44.076,37.816c-0.896-0.51-1.831-0.78-2.706-0.78c-1.301,0-2.366,0.596-3.011,1.68c-1.02,1.22-2.285,2.646-2.592,2.867
		c-2.376,1.612-4.236,1.429-6.294-0.629L17.987,29.467c-2.045-2.045-2.233-3.928-0.632-6.291c0.224-0.309,1.65-1.575,2.87-2.596
		c0.778-0.463,1.312-1.151,1.546-1.995c0.311-1.123,0.082-2.444-0.652-3.731c-0.173-0.296-4.291-7.27-8.085-9.277
		c-0.708-0.375-1.506-0.573-2.306-0.573c-1.318,0-2.558,0.514-3.49,1.445L4.7,8.986c-4.014,4.013-5.467,8.562-4.321,13.52
		c0.956,4.132,3.742,8.529,8.282,13.068l14.705,14.705c5.746,5.746,11.224,8.66,16.282,8.66c0,0,0,0,0,0
		c3.721,0,7.188-1.581,10.306-4.698l2.537-2.537c1.541-1.541,1.891-3.87,0.872-5.796C51.356,42.112,44.383,37.996,44.076,37.816z"/>
	<path d="M58.942,38.003c-3.69,0-6.693-3.003-6.693-6.693c0-0.553-0.447-1-1-1s-1,0.447-1,1c0,4.794,3.899,8.693,8.693,8.693
		c0.553,0,1-0.447,1-1S59.495,38.003,58.942,38.003z"/>
	<path d="M58.196,35.662c0.553,0,1-0.447,1-1s-0.447-1-1-1c-0.886,0-1.605-0.72-1.605-1.605c0-0.553-0.447-1-1-1s-1,0.447-1,1
		C54.591,34.044,56.208,35.662,58.196,35.662z"/>
	<path d="M19.942,3.003c3.691,0,6.693,3.003,6.693,6.693c0,0.553,0.448,1,1,1s1-0.447,1-1c0-4.794-3.9-8.693-8.693-8.693
		c-0.552,0-1,0.447-1,1S19.39,3.003,19.942,3.003z"/>
	<path d="M19.689,6.345c0,0.553,0.448,1,1,1c0.885,0,1.604,0.72,1.604,1.605c0,0.553,0.448,1,1,1s1-0.447,1-1
		c0-1.988-1.617-3.605-3.604-3.605C20.137,5.345,19.689,5.792,19.689,6.345z"/>
</g>
<g>
</g>
<g>
</g>
<g>
</g>
<g>
</g>
<g>
</g>
<g>
</g>
<g>
</g>
<g>
</g>
<g>
</g>
<g>
</g>
<g>
</g>
<g>
</g>
<g>
</g>
<g>
</g>
<g>
</g>
</svg>
